<svg xmlns="http://www.w3.org/2000/svg" viewBox="0 0 60.8 69.9"><defs><style>.a{fill:#f89920;}.b{fill:#fbf3f2;}.c{fill:#1c768f;}.d{fill:#fff;}</style></defs><path class="a" d="M64.9,152.6a10.5,10.5,0,0,1-.6,3.6,11.4,11.4,0,0,1-2.8,4.6l-.3.2a12.3,12.3,0,0,0-7.2,2.5h-.1v-.2a12.3,12.3,0,0,0,2.4-5.9,4.9,4.9,0,0,0,.1-1.2c0-.1.1-.2.1-.3a11.8,11.8,0,0,1,6.4-3.2l1.7-.2Z" transform="translate(-22.5 -140.5)"/><path class="a" d="M52.9,165.9a12.8,12.8,0,0,0,.7,2.8,11.4,11.4,0,0,0,2.6,4.2.4.4,0,0,1,.1.3,11.4,11.4,0,0,1-3.3,8.2h-.1l-.8-1a11,11,0,0,1-2.5-6.2c0-.1-.1-.2-.1-.3a1.9,1.9,0,0,1,.5-1.6,11.1,11.1,0,0,0,2.9-6.4Z" transform="translate(-22.5 -140.5)"/><path class="a" d="M52,163.6l-1.2-.8a11.1,11.1,0,0,0-6.1-1.8h-.3a11.7,11.7,0,0,1-3.3-6.4c-.1-.6-.1-1.3-.2-1.9h.9a11.9,11.9,0,0,1,7.4,3.4.4.4,0,0,1,.1.3,12.4,12.4,0,0,0,2.6,7.2Z" transform="translate(-22.5 -140.5)"/><path class="a" d="M40.9,176.6a16,16,0,0,1,.3-2.3,11.1,11.1,0,0,1,3.2-6c0-.1.2-.1.3-.1a12.4,12.4,0,0,0,7.1-2.6H52v.2a11.6,11.6,0,0,0-2.5,6.4v.3c.1.5-.1.7-.4,1a11.8,11.8,0,0,1-6.5,3Z" transform="translate(-22.5 -140.5)"/><path class="a" d="M52.9,163.3c-.1-.5-.1-.9-.2-1.3a12.2,12.2,0,0,0-3.1-5.8v-.3a12.7,12.7,0,0,1,3.2-8.1l.2-.2.7.8a12.3,12.3,0,0,1,2.7,6.4v.3a1.7,1.7,0,0,1-.5,1.6,11.4,11.4,0,0,0-2.8,6.2v.4Z" transform="translate(-22.5 -140.5)"/><path class="a" d="M36,164.6a10.5,10.5,0,0,1,2.7-2,11.8,11.8,0,0,1,5.5-1.4h.4a12,12,0,0,0,6.7,3.2h-.7a12.4,12.4,0,0,0-6,3.1l-.3.2a12.3,12.3,0,0,1-8.2-3.3Z" transform="translate(-22.5 -140.5)"/><path class="a" d="M54.2,164.6l1.1-.2a12.5,12.5,0,0,0,5.9-3.1c.2-.1.3-.2.5-.1a11.4,11.4,0,0,1,8,3.2h.1a9,9,0,0,1-1.9,1.5,12.6,12.6,0,0,1-6.3,1.9l-.3-.2a13,13,0,0,0-6.8-3.2Z" transform="translate(-22.5 -140.5)"/><path class="a" d="M53.9,165.6l1.8,1.1a12.9,12.9,0,0,0,5.4,1.5h.4a12.5,12.5,0,0,1,3.3,6.8,5.7,5.7,0,0,1,.1,1.3h-1a12,12,0,0,1-7.2-3.3.5.5,0,0,1-.2-.4,12.6,12.6,0,0,0-2.4-7C54,165.8,54,165.7,53.9,165.6Z" transform="translate(-22.5 -140.5)"/><path class="b" d="M65.1,176.6a12.8,12.8,0,0,0-3.5-8.5,12.6,12.6,0,0,0,8.4-3.4l.9,1a12.3,12.3,0,0,1,2.5,6v1.2a.4.4,0,0,1-.1.3,11.1,11.1,0,0,1-6.2,3.1Z" transform="translate(-22.5 -140.5)"/><path class="b" d="M35.9,164.7a12.2,12.2,0,0,0,8.3,3.4,13.6,13.6,0,0,0-2.5,3.9,11.3,11.3,0,0,0-.9,4.5H39.7a12.3,12.3,0,0,1-7.2-3.3c-.1-.1-.1-.2-.1-.4A11.5,11.5,0,0,1,35.9,164.7Z" transform="translate(-22.5 -140.5)"/><path class="b" d="M56.5,173.2a12.2,12.2,0,0,0,8.4,3.5,7.6,7.6,0,0,1-.1,1.5,12,12,0,0,1-2.7,6.2l-.3.3a1,1,0,0,1-.9.4,12.1,12.1,0,0,1-7.8-3.4h0A12.2,12.2,0,0,0,56.5,173.2Z" transform="translate(-22.5 -140.5)"/><path class="b" d="M44.2,161a12.2,12.2,0,0,0-8.3,3.4,10.8,10.8,0,0,1-3.5-7.6c0-.8,0-.8.6-1.3a11.3,11.3,0,0,1,6.3-2.8h1.2c.2,0,.3,0,.3.2a11.8,11.8,0,0,0,2.6,7.2l.4.5Z" transform="translate(-22.5 -140.5)"/><path class="b" d="M53,147.5a12,12,0,0,1,7.7-3.4c.7-.1.7-.1,1.2.5a11.4,11.4,0,0,1,2.9,6.5,5.7,5.7,0,0,1,.1,1.3,12.2,12.2,0,0,0-8.4,3.5A11.9,11.9,0,0,0,53,147.5Z" transform="translate(-22.5 -140.5)"/><path class="b" d="M52.8,181.6a12.4,12.4,0,0,1-5.8,3.2l-2.4.3h-.3a11.4,11.4,0,0,1-3.2-6.7c-.1-.5-.1-.9-.2-1.4s.1-.1.1-.2a11.8,11.8,0,0,0,8.3-3.5A12.3,12.3,0,0,0,52.8,181.6Z" transform="translate(-22.5 -140.5)"/><path class="b" d="M70,164.4a12.4,12.4,0,0,0-3.9-2.5,11.3,11.3,0,0,0-4.5-.9,12.7,12.7,0,0,0,3.5-8.4H66a12.3,12.3,0,0,1,7.3,3.3.6.6,0,0,1,.1.4,11.7,11.7,0,0,1-2.8,7.4Z" transform="translate(-22.5 -140.5)"/><path class="b" d="M49.3,155.9a11.9,11.9,0,0,0-8.4-3.5,3.4,3.4,0,0,0,.1-1,12.2,12.2,0,0,1,2.4-6.3l.9-.9.3-.2a12.4,12.4,0,0,1,7.2,2.6l1,.9a11.9,11.9,0,0,0-2.5,3.8A14.6,14.6,0,0,0,49.3,155.9Z" transform="translate(-22.5 -140.5)"/><path class="c" d="M73.6,156.3a11.9,11.9,0,0,1,0,16.6,12.1,12.1,0,0,0-3.5-8.3A12.3,12.3,0,0,0,73.6,156.3Z" transform="translate(-22.5 -140.5)"/><path class="c" d="M44.1,144a14.4,14.4,0,0,0-1.8,2.5,12,12,0,0,0-1.5,5.6c0,.3,0,.3-.3.3a12.3,12.3,0,0,0-7.8,3.1l-.2.2a.1.1,0,0,0-.1.1,11.6,11.6,0,0,1,2.7-7.4A11.9,11.9,0,0,1,44.1,144Z" transform="translate(-22.5 -140.5)"/><path class="c" d="M61.2,143.8a12.4,12.4,0,0,0-8.3,3.6,12.2,12.2,0,0,0-8.3-3.6A12.1,12.1,0,0,1,61.2,143.8Z" transform="translate(-22.5 -140.5)"/><path class="c" d="M73.4,155.7a13.6,13.6,0,0,0-3.8-2.4,12,12,0,0,0-4.5-.9,12.6,12.6,0,0,0-3.4-8.4,11.9,11.9,0,0,1,7.3,2.7A11.7,11.7,0,0,1,73.4,155.7Z" transform="translate(-22.5 -140.5)"/><path class="c" d="M61.7,185.1a12.6,12.6,0,0,0,3.4-8.4,12.1,12.1,0,0,0,8.3-3.3A11.9,11.9,0,0,1,61.7,185.1Z" transform="translate(-22.5 -140.5)"/><path class="c" d="M35.7,164.6a12.1,12.1,0,0,0-3.5,8.3,11.9,11.9,0,0,1-3.3-7.9,11.5,11.5,0,0,1,3.3-8.7,14.6,14.6,0,0,0,1,4.5A13.2,13.2,0,0,0,35.7,164.6Z" transform="translate(-22.5 -140.5)"/><path class="c" d="M61.2,185.3a12.1,12.1,0,0,1-16.6,0,12.4,12.4,0,0,0,8.3-3.6A12.4,12.4,0,0,0,61.2,185.3Z" transform="translate(-22.5 -140.5)"/><path class="c" d="M44.1,185.1a11.9,11.9,0,0,1-11.7-11.8,12,12,0,0,0,8.4,3.4A12,12,0,0,0,44.1,185.1Z" transform="translate(-22.5 -140.5)"/><path class="d" d="M53.3,164.7a12.9,12.9,0,0,1,8.1,3.4,11.2,11.2,0,0,1-4.4-.9A11.5,11.5,0,0,1,53.3,164.7Z" transform="translate(-22.5 -140.5)"/><path class="d" d="M56.4,173a11.8,11.8,0,0,1-3.3-8,13.1,13.1,0,0,1,2.4,3.7A10.7,10.7,0,0,1,56.4,173Z" transform="translate(-22.5 -140.5)"/><path class="d" d="M49.4,156.1a12.6,12.6,0,0,1,3.4,8.1,12.7,12.7,0,0,1-2.5-3.7A11.2,11.2,0,0,1,49.4,156.1Z" transform="translate(-22.5 -140.5)"/><path class="d" d="M52.5,164.4a12.2,12.2,0,0,1-8.1-3.3A12.2,12.2,0,0,1,52.5,164.4Z" transform="translate(-22.5 -140.5)"/><path class="d" d="M61.4,161.1a12.2,12.2,0,0,1-8.1,3.3A12.2,12.2,0,0,1,61.4,161.1Z" transform="translate(-22.5 -140.5)"/><path class="d" d="M56.4,156.1c.2,2.5-1.5,6.4-3.3,8.1C52.7,162.3,54.6,157.6,56.4,156.1Z" transform="translate(-22.5 -140.5)"/><path class="d" d="M44.4,168.1c1.3-1.7,6-3.6,8.1-3.4C51.1,166.5,46.5,168.4,44.4,168.1Z" transform="translate(-22.5 -140.5)"/><path class="d" d="M49.4,173.1a12.2,12.2,0,0,1,3.3-8.1A12.2,12.2,0,0,1,49.4,173.1Z" transform="translate(-22.5 -140.5)"/><circle class="c" cx="30.4" cy="24.1" r="1.7"/><circle class="c" cx="8.2" cy="68.2" r="1.2"/><circle class="c" cx="52.7" cy="68.2" r="1.2"/><path class="c" d="M27,205.8l-.6-.2a3.5,3.5,0,0,1-.5-.8c-.9-2.3-1.1-3.1-1.7-5s-1-3.3-1.6-5.4a.9.9,0,0,1,.2-1,45.6,45.6,0,0,1,5.5-1.3,117.9,117.9,0,0,1,18.8-2.4,122.9,122.9,0,0,1,19.2.8,119.7,119.7,0,0,1,14.4,2.3c.8.2,2.5.7,2.6,1.1a13.6,13.6,0,0,1-1.1,3.8c-1.1,2.6-1.3,3.3-2.6,6.6a1.6,1.6,0,0,1-1.2,1.2,32.3,32.3,0,0,1-3.3-.6A92.8,92.8,0,0,0,58.5,203a106,106,0,0,0-11.3.1c-3.3.2-6.1.4-9.2.8l-5,.8-4.5.9-1.2.2Z" transform="translate(-22.5 -140.5)"/><path class="d" d="M36,198.8l-.2-1.5,2.7-.4.4,3.1a3.5,3.5,0,0,1-1.2,1,2.9,2.9,0,0,1-1.4.5,3.1,3.1,0,0,1-1.7-.2,2.6,2.6,0,0,1-1.1-1.2,3.6,3.6,0,0,1-.7-1.9,6.6,6.6,0,0,1,.1-2,3.1,3.1,0,0,1,1-1.5,3.7,3.7,0,0,1,1.5-.5h1.4l.9.5.6,1.1-1.7.6a1,1,0,0,0-.4-.5.8.8,0,0,0-.7-.2,1.3,1.3,0,0,0-.8.7,2.6,2.6,0,0,0-.1,1.6,3,3,0,0,0,.6,1.6.9.9,0,0,0,1,.3l.5-.2.6-.4v-.7Z" transform="translate(-22.5 -140.5)"/><path class="d" d="M40.2,193.7l1.7-.2,2.4,3.8-.3-3.9,1.7-.2.6,7.1H44.6l-2.4-3.7.3,3.9-1.7.2Z" transform="translate(-22.5 -140.5)"/><path class="d" d="M47.9,193.1h1.8v2.5h1.9V193h1.8l.2,7.1H51.8v-2.9H49.8v2.8H48.1Z" transform="translate(-22.5 -140.5)"/><path class="d" d="M55.4,198.1h1.7v2H55.4Z" transform="translate(-22.5 -140.5)"/><path class="d" d="M58.8,193h1.8l.9,5.2,1.6-5h1.8l-2.5,6.9h-2Z" transform="translate(-22.5 -140.5)"/><path class="d" d="M66.7,193.6l1.7.2,1.5,4.2.6-3.9,1.6.3-1,7-1.6-.2L67.9,197l-.6,3.9-1.6-.3Z" transform="translate(-22.5 -140.5)"/><path class="c" d="M35.4,209.7l-.5.2a1.3,1.3,0,0,1-1.6-1.1c-.2-1,.3-1.6,1-1.7h.6v.5h-.5c-.4.1-.6.4-.5,1s.5.9.9.8l.5-.2Z" transform="translate(-22.5 -140.5)"/><path class="c" d="M37.6,207.9c.1.9-.3,1.6-.9,1.7a1.2,1.2,0,0,1-1.4-1.2c-.2-.9.2-1.6.9-1.7S37.4,207.1,37.6,207.9Zm-1.3-1.8.4.4h-.4l-.2-.3h0v.3h-.4l.3-.6Zm-.5,2.2c.1.5.4.8.8.8s.5-.5.4-1.1-.4-.9-.7-.8S35.8,207.7,35.8,208.3Zm1,2.1c-.1.1-.2-.1-.3-.2s.1-.3.2-.3.3,0,.3.2,0,.3-.2.3Z" transform="translate(-22.5 -140.5)"/><path class="c" d="M38.1,209.3l-.4-2.8h.6l.7,1,.5.9h0a5,5,0,0,1-.2-1.2v-.8h.5l.4,2.8h-.6l-.7-1c-.1-.3-.4-.6-.5-.9h0a7.4,7.4,0,0,0,.2,1.2v.8Z" transform="translate(-22.5 -140.5)"/><path class="c" d="M42.5,208.6l-.8.2a1,1,0,0,1-1-.2,1.9,1.9,0,0,1-.5-1,1.3,1.3,0,0,1,1.2-1.6h.7v.5h-.5c-.5,0-.8.4-.7,1s.4.9.8.8.3,0,.3-.1v-.5h-.3v-.5h.9Z" transform="translate(-22.5 -140.5)"/><path class="c" d="M43.2,206.9h.2v-1.1H44a1,1,0,0,1,1,.2,1.1,1.1,0,0,1,.5,1q.2.9-.3,1.2a1.6,1.6,0,0,1-1,.5h-.7v-1.2h-.2Zm1.3.4H44v.7h.2c.5-.1.8-.4.8-1.1s-.4-.9-.9-.8h-.2v.7h.5Z" transform="translate(-22.5 -140.5)"/><path class="c" d="M48.1,206.8c0,.9-.4,1.5-1.1,1.6a1.3,1.3,0,0,1-1.2-1.4c-.1-.8.3-1.5,1.1-1.5S48,206,48.1,206.8Zm-1.1-2,.4.5H47l-.2-.2h0v.3h-.4l.3-.5Zm-.7,2.2c.1.5.3.9.7.9s.5-.5.5-1-.3-1-.6-.9S46.3,206.4,46.3,207Zm1.1-2.5.2.5h-.2l-.5-.4Z" transform="translate(-22.5 -140.5)"/><path class="c" d="M48.5,208.2v-2.8H49l.5,1c.2.3.3.7.5,1h0a4.9,4.9,0,0,1-.1-1.2v-.8h.5v2.8h-.6l-.6-1.1a10.4,10.4,0,0,1-.4-1h0v2.1Z" transform="translate(-22.5 -140.5)"/><path class="c" d="M52.9,208l-.8.2a1.1,1.1,0,0,1-1-.4,1.5,1.5,0,0,1-.4-1,1.4,1.4,0,0,1,1.4-1.5h.7v.5h-.6c-.4,0-.8.3-.8,1a.8.8,0,0,0,.8.9h.3V207H52v-.5h.9Z" transform="translate(-22.5 -140.5)"/><path class="c" d="M54,207.5l.6.2a.3.3,0,0,0,.3-.3c0-.2-.1-.3-.3-.4s-.7-.4-.7-.9a.9.9,0,0,1,.9-.8l.6.2v.5l-.5-.2a.3.3,0,0,0-.3.3c0,.2.1.3.4.4a1,1,0,0,1,.6.9c0,.4-.3.8-1,.8l-.7-.2Z" transform="translate(-22.5 -140.5)"/><path class="c" d="M58.1,206.8c-.1,1-.6,1.5-1.3,1.5s-1.1-.7-1-1.5.5-1.5,1.2-1.4A1.3,1.3,0,0,1,58.1,206.8Zm-1.8,0c0,.6.2,1,.6,1s.6-.4.6-1-.2-.9-.6-.9S56.3,206.3,56.3,206.8Zm.9-2,.3.5h-.3L57,205h0l-.2.3h-.3l.3-.5Zm.9-.4-.5.5h-.3l.3-.5Z" transform="translate(-22.5 -140.5)"/><path class="c" d="M58.3,208.3l.2-2.8h.6l.5,1.1.3,1h0v-2h.5l-.2,2.8h-.6l-.4-1.1c-.1-.3-.3-.7-.4-1.1h0v2Z" transform="translate(-22.5 -140.5)"/><path class="c" d="M62.7,208.5h-.8a1.1,1.1,0,0,1-.9-.5,1.5,1.5,0,0,1-.3-1,1.4,1.4,0,0,1,1.5-1.4l.7.2-.2.5h-.5a.7.7,0,0,0-.9.8.8.8,0,0,0,.7,1h.2v-.6h-.4v-.5h.9Z" transform="translate(-22.5 -140.5)"/><path class="c" d="M64.3,206.5h-.6v-.5l1.8.2v.6h-.6l-.3,2.3h-.5Z" transform="translate(-22.5 -140.5)"/><path class="c" d="M68.3,206v.4a.4.4,0,0,1-.4.4h-.1l-.2,1.2c-.1.9-.5,1.2-1.2,1.1s-.8-.5-.7-1.4l.2-1.5h.5l-.2,1.6c-.1.5.1.8.3.8s.5-.1.6-.6l.2-1.6h.6V206Zm-1.4.1c0-.2.2-.2.2-.3a.3.3,0,0,0-.1-.2h-.3c.1-.2.2-.3.4-.3s.4.2.3.4-.2.3-.3.5Z" transform="translate(-22.5 -140.5)"/><path class="c" d="M69.4,207.2h-.6v-.5l1.8.3v.5h-.7l-.3,2.3H69Z" transform="translate(-22.5 -140.5)"/><path class="c" d="M72.1,208.8h-.9v.6l.9.2v.5l-1.5-.3.6-2.8,1.4.3v.5h-.9v.5l.9.2Zm-.1-2.3.2.5h-.3v-.3h0l-.2.2h-.4l.5-.4Zm.9-.2-.5.4h-.3l.4-.4Z" transform="translate(-22.5 -140.5)"/></svg>